# xmcd
#
# Track frame offsets: 
#        150
#        14895
#        31825
#        46002
#        59586
#        77618
#        93359
#        107331
#        121700
#        141607
#        159276
#        177724
#        197465
#        208398
#        224249
#        240371
#        258598
#        275283
#        292714
#        308850
#        327502
#        345017
#
# Disc length: 4798 seconds
#
# Revision: 0
# Processed by: cddbd v1.5.2PL0 Copyright (c) Steve Scherf et al.
# Submitted via: ExactAudioCopy v0.99pb4
#
DISCID=3e12bc16
DTITLE=Various Artist - prevue promo 1163A-4
DYEAR=2005
DGENRE=pop
TTITLE0=Jason Mraz - Wordplay 
TTITLE1=William 'fell - Just For You 
TTITLE2=British Sea Power - Please Stand Up 
TTITLE3=Phoenix - Everything Is Everything 
TTITLE4=Pat McGee Band - It Must Have Been Love 
TTITLE5=Fat Joe Feat.  Nelly - Get It Poppin 
TTITLE6=Bizarre - Rockstar 
TTITLE7=Dwight Twilley - Better Watch Out
TTITLE8=Robert Cray - Poor Johnny 
TTITLE9=Robert Cray - I'm Walkin' 
TTITLE10=Mark Knopfler - Postcards From Paraguay 
TTITLE11=Alana Davis - The Reaper
TTITLE12=Shelby Lynn - Go With It 
TTITLE13=Beck - Girl 
TTITLE14=Tommy Lee Presents TommyLand The Ride - Tryin To Be Me( Lyric
TTITLE14=TL Education Services. INC. From TV Series Tm Lee Goes to Co
TTITLE14=llege
TTITLE15=Hot Hot Heat - Middle Of Nowhere
TTITLE16=MXPx - Heard That Sound
TTITLE17=Oueens Of The Stone Age - In My Head 
TTITLE18=RedLightMusic - Fading Away 
TTITLE19=Jackie Warner - Silent Night
TTITLE20=Sleater-Kinney - Entertain 
TTITLE21=Crossfade - Colors 
EXTD=
EXTT0=
EXTT1=
EXTT2=
EXTT3=
EXTT4=
EXTT5=
EXTT6=
EXTT7=
EXTT8=
EXTT9=
EXTT10=
EXTT11=
EXTT12=
EXTT13=
EXTT14=
EXTT15=
EXTT16=
EXTT17=
EXTT18=
EXTT19=
EXTT20=
EXTT21=
PLAYORDER=
